<?xml version="1.0" encoding="UTF-8"?>
<svg version="1.1" xmlns="http://www.w3.org/2000/svg" width="1024" height="1024">
<path d="M0 0 C337.92 0 675.84 0 1024 0 C1024 337.92 1024 675.84 1024 1024 C686.08 1024 348.16 1024 0 1024 C0 686.08 0 348.16 0 0 Z " fill="#FCFAF6" transform="translate(0,0)"/>
<path d="M0 0 C19.87936712 17.40733718 39.14262052 41.35023918 46.68212891 67.1628418 C46.55322266 69.3659668 46.55322266 69.3659668 45.68212891 71.1628418 C44.01025391 72.61206055 44.01025391 72.61206055 41.93212891 73.8503418 C41.25666016 74.26670898 40.58119141 74.68307617 39.88525391 75.11206055 C25.49985305 81.97318259 5.61257793 75.72236494 -8.46697998 70.75314331 C-15.85003746 68.07630463 -22.87975506 64.77103919 -29.93084717 61.32855225 C-48.73741145 52.16993323 -67.70884178 44.31066117 -87.9296875 38.81225586 C-89.46906086 38.39365709 -91.00552269 37.96412304 -92.53808594 37.52124023 C-112.71246845 31.78311296 -137.40481849 31.26986205 -157.31787109 38.1628418 C-158.41615234 38.53666992 -159.51443359 38.91049805 -160.64599609 39.2956543 C-167.62190064 41.94229145 -173.43357671 45.61588704 -179.31787109 50.1628418 C-179.93146484 50.58823242 -180.54505859 51.01362305 -181.17724609 51.4519043 C-192.25113832 59.73192463 -197.28048118 72.99401692 -199.31787109 86.1628418 C-201.18038023 102.16081499 -194.18697587 118.32331334 -185.14990234 131.26831055 C-182.96817972 134.00608283 -180.69651403 136.59503436 -178.31787109 139.1628418 C-177.62822266 139.94401367 -176.93857422 140.72518555 -176.22802734 141.5300293 C-162.13268543 156.64102853 -143.59194339 167.38714656 -126.2578125 178.30102539 C-104.61168604 192.00916029 -104.61168604 192.00916029 -95.31787109 200.1628418 C-94.60373047 200.7712793 -93.88958984 201.3797168 -93.15380859 202.0065918 C-86.64839125 207.95161739 -80.90142167 216.79161743 -80.07958984 225.7644043 C-79.83093964 235.89362847 -82.27479947 242.88823837 -89.18896484 250.36987305 C-100.40287704 259.81425047 -115.55102566 259.02385616 -129.31787109 258.1628418 C-155.36250765 255.08965464 -178.69585865 241.05891138 -197.31787109 223.1628418 C-198.48962891 222.05102539 -198.48962891 222.05102539 -199.68505859 220.91674805 C-204.74306371 216.00350066 -209.04812459 210.76617573 -213.31787109 205.1628418 C-213.74155114 210.79951184 -214.04789 216.42678049 -214.25170898 222.07568359 C-214.33668271 223.99073656 -214.45233965 225.90470271 -214.6003418 227.81591797 C-215.67878774 238.51443013 -215.67878774 238.51443013 -211.7756958 248.06521606 C-207.16401275 252.07688098 -201.82143558 254.60610495 -196.31787109 257.1628418 C-194.33166211 258.24933957 -192.34696259 259.3386083 -190.36474609 260.43237305 C-188.60752138 261.29730893 -186.84181763 262.14524153 -185.06787109 262.9753418 C-183.61973022 263.6559668 -183.61973022 263.6559668 -182.14233398 264.3503418 C-160.31254624 274.29547803 -137.67909247 277.37776304 -113.88037109 277.5378418 C-112.56576904 277.55186035 -111.25116699 277.56587891 -109.89672852 277.58032227 C-86.97330523 277.46803017 -63.40614513 270.53942931 -46.91162109 254.0222168 C-35.28050219 241.19995921 -30.43095139 225.49785744 -30.93896484 208.3894043 C-31.94535892 192.78488546 -40.10175998 177.58975127 -50.31787109 166.1628418 C-50.97271484 165.42549805 -51.62755859 164.6881543 -52.30224609 163.9284668 C-62.13179161 153.50767043 -74.52625333 145.91354214 -86.52099609 138.2487793 C-147.43631408 99.23705437 -147.43631408 99.23705437 -151.31787109 83.1628418 C-152.18840399 75.14736912 -152.69407261 66.96132444 -148.00537109 59.99487305 C-142.42401532 53.93548449 -135.53027086 50.55749463 -127.35693359 49.79174805 C-103.64158431 49.12477066 -83.86517577 60.28061594 -65.31787109 74.1628418 C-64.67865723 74.63834473 -64.03944336 75.11384766 -63.38085938 75.60375977 C-53.15878637 83.32773465 -44.02109029 92.15391335 -34.94287109 101.1628418 C-34.396651 101.70111603 -33.85043091 102.23939026 -33.28765869 102.79397583 C-25.24766842 110.74394024 -18.10821801 119.12730567 -11.31787109 128.1628418 C-10.88129684 128.73955627 -10.4447226 129.31627075 -9.99491882 129.91046143 C16.1521621 164.50194937 31.96454309 207.14541145 26.93212891 250.8503418 C22.52143937 279.24793197 8.70001701 301.83838289 -14.51367188 318.85766602 C-15.10905762 319.28837402 -15.70444336 319.71908203 -16.31787109 320.1628418 C-16.87071777 320.56390137 -17.42356445 320.96496094 -17.99316406 321.37817383 C-41.31460795 337.99252384 -71.18353716 347.19076931 -99.77099609 347.3659668 C-100.93209648 347.37655624 -100.93209648 347.37655624 -102.11665344 347.38735962 C-135.20900384 347.62059251 -135.20900384 347.62059251 -150.31787109 344.1628418 C-151.16478516 343.96948242 -152.01169922 343.77612305 -152.88427734 343.5769043 C-177.36333702 337.73653954 -199.31045463 326.24232317 -219.31787109 311.1628418 C-220.19443359 310.5131543 -221.07099609 309.8634668 -221.97412109 309.1940918 C-261.42016894 278.51383236 -288.0018613 231.04741095 -294.6640625 181.59301758 C-301.43285511 126.63042161 -289.13464358 70.77562175 -255.94287109 25.95581055 C-253.80398043 23.28601666 -251.5970286 20.71360874 -249.31787109 18.1628418 C-248.47869141 17.2037793 -247.63951172 16.2447168 -246.77490234 15.2565918 C-188.01819709 -51.05807445 -83.15393666 -63.50837518 0 0 Z " fill="#ED7328" transform="translate(632.31787109375,355.837158203125)"/>
<path d="M0 0 C0.66 0 1.32 0 2 0 C1.7834375 0.69222656 1.566875 1.38445312 1.34375 2.09765625 C-0.80336399 9.64237625 -1.2194868 16.18825401 -0.91015625 23.9453125 C-1 27 -1 27 -3 29 C-4.69384237 27.30615763 -4.25303099 25.26305119 -4.3125 22.9375 C-4.28363273 14.96051196 -2.16485742 7.61565912 0 0 Z " fill="#FCF6EF" transform="translate(436,426)"/>
<path d="M0 0 C0 3 0 3 -1.6796875 5.04296875 C-2.76636719 6.10451172 -2.76636719 6.10451172 -3.875 7.1875 C-4.59429688 7.90292969 -5.31359375 8.61835937 -6.0546875 9.35546875 C-8 11 -8 11 -10 11 C-10 11.99 -10 12.98 -10 14 C-11.875 16.1875 -11.875 16.1875 -14 18 C-14.66 18 -15.32 18 -16 18 C-16.33 18.66 -16.66 19.32 -17 20 C-17 19.01 -17 18.02 -17 17 C-17.66 16.67 -18.32 16.34 -19 16 C-18.21496094 15.43152344 -17.42992187 14.86304688 -16.62109375 14.27734375 C-10.65318435 9.89111341 -5.01215918 5.48866727 0 0 Z " fill="#EB6119" transform="translate(589,606)"/>
<path d="M0 0 C2.912575 0.08566397 4.56798024 0.57910955 6.66796875 2.625 C8.16091772 4.38391375 9.60436262 6.16313019 11 8 C8.625 7.6875 8.625 7.6875 6 7 C5.34 6.01 4.68 5.02 4 4 C1.43717258 3.27034634 1.43717258 3.27034634 -1 3 C-0.67 2.01 -0.34 1.02 0 0 Z " fill="#EC651C" transform="translate(588,452)"/>
<path d="M0 0 C0.33 0 0.66 0 1 0 C1.33 6.27 1.66 12.54 2 19 C1.67 18.01 1.34 17.02 1 16 C0.34 16 -0.32 16 -1 16 C-0.67 10.72 -0.34 5.44 0 0 Z " fill="#EB5B11" transform="translate(431,440)"/>
<path d="M0 0 C0.33 0 0.66 0 1 0 C0.65021857 6.64584719 -0.80477672 9.83664827 -5 15 C-5 12.35220307 -4.82804069 10.48412207 -4 8 C-3.34 7.67 -2.68 7.34 -2 7 C-1.26924352 4.6859378 -0.59861742 2.35171131 0 0 Z " fill="#EB5A13" transform="translate(550,589)"/>
<path d="M0 0 C2.72647685 2.35468455 3.98756342 4.5408417 5 8 C4.625 10.3125 4.625 10.3125 4 12 C3.34 11.67 2.68 11.34 2 11 C2.33 10.34 2.66 9.68 3 9 C2.505 8.62875 2.01 8.2575 1.5 7.875 C-0.59755514 5.25305607 -0.21743835 3.26157528 0 0 Z " fill="#EA5E15" transform="translate(674,415)"/>
<path d="M0 0 C0.33 0 0.66 0 1 0 C1.36552803 1.41377782 1.71695495 2.83120576 2.0625 4.25 C2.25972656 5.03890625 2.45695313 5.8278125 2.66015625 6.640625 C3.01497267 9.10394822 2.76877544 10.65604132 2 13 C1.34 13 0.68 13 0 13 C0 8.71 0 4.42 0 0 Z " fill="#EE7A32" transform="translate(549,578)"/>
<path d="M0 0 C0.33 0 0.66 0 1 0 C1.38885039 1.78871178 1.76069196 3.58112874 2.125 5.375 C2.33382813 6.37273437 2.54265625 7.37046875 2.7578125 8.3984375 C2.83773438 9.25695312 2.91765625 10.11546875 3 11 C2.34 11.66 1.68 12.32 1 13 C0 12 0 12 -0.09765625 9.27734375 C-0.08605469 8.17519531 -0.07445312 7.07304687 -0.0625 5.9375 C-0.05347656 4.83277344 -0.04445313 3.72804688 -0.03515625 2.58984375 C-0.02355469 1.73519531 -0.01195312 0.88054687 0 0 Z " fill="#FAE1CA" transform="translate(432,442)"/>
<path d="M0 0 C6.75 -0.125 6.75 -0.125 9 1 C9 1.66 9 2.32 9 3 C6.36 3 3.72 3 1 3 C0.67 2.01 0.34 1.02 0 0 Z " fill="#EF7B31" transform="translate(502,611)"/>
<path d="M0 0 C0.66 0.33 1.32 0.66 2 1 C2 2.32 2 3.64 2 5 C2.66 5.33 3.32 5.66 4 6 C2.35 6.33 0.7 6.66 -1 7 C-1.625 5.1875 -1.625 5.1875 -2 3 C-1.34 2.01 -0.68 1.02 0 0 Z " fill="#EC691E" transform="translate(576,688)"/>
</svg>
